<svg xmlns="http://www.w3.org/2000/svg" viewBox="0 0 200 200" fill="none" stroke="#1B1A18" stroke-width="1.25">
  <circle cx="100" cy="100" r="90"></circle>
  <circle cx="100" cy="100" r="70"></circle>
  <circle cx="100" cy="100" r="4" fill="#1B1A18" stroke="none"></circle>
  
  <path d="M100 10 L108 92 L100 100 L92 92 Z" fill="#1B1A18" stroke="none"></path>
  <path d="M100 10 L92 92 L100 100 L108 92 Z" fill="none"></path>
  <path d="M190 100 L108 108 L100 100 L108 92 Z" fill="#1B1A18" stroke="none"></path>
  <path d="M100 190 L92 108 L100 100 L108 108 Z" fill="#1B1A18" stroke="none"></path>
  <path d="M10 100 L92 92 L100 100 L92 108 Z" fill="#1B1A18" stroke="none"></path>
  
  <path d="M163.6 36.4 L106 94 L100 100 L106 94 Z" fill="none"></path>
  <line x1="100" y1="100" x2="163.6" y2="36.4"></line>
  <line x1="100" y1="100" x2="163.6" y2="163.6"></line>
  <line x1="100" y1="100" x2="36.4" y2="163.6"></line>
  <line x1="100" y1="100" x2="36.4" y2="36.4"></line>
  
  <g font-family="Fraunces, serif" font-weight="700" font-size="14" fill="#1B1A18" stroke="none" text-anchor="middle">
    <text x="100" y="30">N</text>
    <text x="176" y="105">E</text>
    <text x="100" y="180">S</text>
    <text x="24" y="105">W</text>
  </g>
  
  <g stroke-width="0.75">
    <line x1="100.00" y1="10.00" x2="100.00" y2="18.00"></line><line x1="107.84" y1="10.34" x2="107.67" y2="12.33"></line><line x1="115.63" y1="11.37" x2="115.28" y2="13.34"></line><line x1="123.29" y1="13.07" x2="122.26" y2="16.93"></line><line x1="130.78" y1="15.43" x2="130.10" y2="17.31"></line><line x1="138.04" y1="18.43" x2="137.19" y2="20.24"></line><line x1="145.00" y1="22.06" x2="141.00" y2="28.99"></line><line x1="151.62" y1="26.28" x2="150.47" y2="27.91"></line><line x1="157.85" y1="31.06" x2="156.57" y2="32.59"></line><line x1="163.64" y1="36.36" x2="160.81" y2="39.19"></line><line x1="168.94" y1="42.15" x2="167.41" y2="43.43"></line><line x1="173.72" y1="48.38" x2="172.09" y2="49.53"></line><line x1="177.94" y1="55.00" x2="171.01" y2="59.00"></line><line x1="181.57" y1="61.96" x2="179.76" y2="62.81"></line><line x1="184.57" y1="69.22" x2="182.69" y2="69.90"></line><line x1="186.93" y1="76.71" x2="183.07" y2="77.74"></line><line x1="188.63" y1="84.37" x2="186.66" y2="84.72"></line><line x1="189.66" y1="92.16" x2="187.67" y2="92.33"></line><line x1="190.00" y1="100.00" x2="182.00" y2="100.00"></line><line x1="189.66" y1="107.84" x2="187.67" y2="107.67"></line><line x1="188.63" y1="115.63" x2="186.66" y2="115.28"></line><line x1="186.93" y1="123.29" x2="183.07" y2="122.26"></line><line x1="184.57" y1="130.78" x2="182.69" y2="130.10"></line><line x1="181.57" y1="138.04" x2="179.76" y2="137.19"></line><line x1="177.94" y1="145.00" x2="171.01" y2="141.00"></line><line x1="173.72" y1="151.62" x2="172.09" y2="150.47"></line><line x1="168.94" y1="157.85" x2="167.41" y2="156.57"></line><line x1="163.64" y1="163.64" x2="160.81" y2="160.81"></line><line x1="157.85" y1="168.94" x2="156.57" y2="167.41"></line><line x1="151.62" y1="173.72" x2="150.47" y2="172.09"></line><line x1="145.00" y1="177.94" x2="141.00" y2="171.01"></line><line x1="138.04" y1="181.57" x2="137.19" y2="179.76"></line><line x1="130.78" y1="184.57" x2="130.10" y2="182.69"></line><line x1="123.29" y1="186.93" x2="122.26" y2="183.07"></line><line x1="115.63" y1="188.63" x2="115.28" y2="186.66"></line><line x1="107.84" y1="189.66" x2="107.67" y2="187.67"></line><line x1="100.00" y1="190.00" x2="100.00" y2="182.00"></line><line x1="92.16" y1="189.66" x2="92.33" y2="187.67"></line><line x1="84.37" y1="188.63" x2="84.72" y2="186.66"></line><line x1="76.71" y1="186.93" x2="77.74" y2="183.07"></line><line x1="69.22" y1="184.57" x2="69.90" y2="182.69"></line><line x1="61.96" y1="181.57" x2="62.81" y2="179.76"></line><line x1="55.00" y1="177.94" x2="59.00" y2="171.01"></line><line x1="48.38" y1="173.72" x2="49.53" y2="172.09"></line><line x1="42.15" y1="168.94" x2="43.43" y2="167.41"></line><line x1="36.36" y1="163.64" x2="39.19" y2="160.81"></line><line x1="31.06" y1="157.85" x2="32.59" y2="156.57"></line><line x1="26.28" y1="151.62" x2="27.91" y2="150.47"></line><line x1="22.06" y1="145.00" x2="28.99" y2="141.00"></line><line x1="18.43" y1="138.04" x2="20.24" y2="137.19"></line><line x1="15.43" y1="130.78" x2="17.31" y2="130.10"></line><line x1="13.07" y1="123.29" x2="16.93" y2="122.26"></line><line x1="11.37" y1="115.63" x2="13.34" y2="115.28"></line><line x1="10.34" y1="107.84" x2="12.33" y2="107.67"></line><line x1="10.00" y1="100.00" x2="18.00" y2="100.00"></line><line x1="10.34" y1="92.16" x2="12.33" y2="92.33"></line><line x1="11.37" y1="84.37" x2="13.34" y2="84.72"></line><line x1="13.07" y1="76.71" x2="16.93" y2="77.74"></line><line x1="15.43" y1="69.22" x2="17.31" y2="69.90"></line><line x1="18.43" y1="61.96" x2="20.24" y2="62.81"></line><line x1="22.06" y1="55.00" x2="28.99" y2="59.00"></line><line x1="26.28" y1="48.38" x2="27.91" y2="49.53"></line><line x1="31.06" y1="42.15" x2="32.59" y2="43.43"></line><line x1="36.36" y1="36.36" x2="39.19" y2="39.19"></line><line x1="42.15" y1="31.06" x2="43.43" y2="32.59"></line><line x1="48.38" y1="26.28" x2="49.53" y2="27.91"></line><line x1="55.00" y1="22.06" x2="59.00" y2="28.99"></line><line x1="61.96" y1="18.43" x2="62.81" y2="20.24"></line><line x1="69.22" y1="15.43" x2="69.90" y2="17.31"></line><line x1="76.71" y1="13.07" x2="77.74" y2="16.93"></line><line x1="84.37" y1="11.37" x2="84.72" y2="13.34"></line><line x1="92.16" y1="10.34" x2="92.33" y2="12.33"></line>
  </g>
</svg>